<svg xmlns="http://www.w3.org/2000/svg" viewBox="0 0 40 40" fill="none">
  <!-- Blue circle border -->
  <circle cx="20" cy="20" r="18" stroke="#334e68" stroke-width="2" fill="#f0f4f8"/>
  <!-- Gear/cog shape -->
  <g transform="translate(20,20)">
    <!-- Gear teeth -->
    <path d="M0,-12 L2,-12 L2.5,-9.5 L4,-9 L6,-11 L7.5,-9.5 L6,-7.5 L6.8,-6 L9.5,-5.5 L9.5,-3.5 L7,-3 L6.8,-1.5 L9,-0.5 L9,1.5 L6.8,1.5 L6,3.5 L7.5,5.5 L6,7 L4,5.5 L2.5,6.5 L2.5,9 L0.5,9 L0,6.8 L-1.5,6.5 L-3.5,8.5 L-5.5,7 L-4,5 L-5,3.5 L-7.5,3.5 L-7.5,1.5 L-5.5,0.5 L-5.5,-1.5 L-8,-2.5 L-8,-4.5 L-5.5,-4.5 L-4.5,-6 L-6,-8 L-4.5,-9.5 L-2.5,-8 L-1,-9 L-1,-12Z"
          fill="#f7c948" stroke="#de911d" stroke-width="0.5"/>
    <!-- Center hole -->
    <circle cx="0" cy="0" r="3" fill="#f0f4f8" stroke="#334e68" stroke-width="0.8"/>
    <circle cx="0" cy="0" r="1.2" fill="#f7c948"/>
  </g>
</svg>
