<svg xmlns="http://www.w3.org/2000/svg" viewBox="0 0 40 40" fill="none">
  <rect width="40" height="40" rx="8" fill="#f0f4f8"/>
  <!-- Gear/cog with sharp teeth -->
  <g transform="translate(20,20)">
    <path d="M-2,-14 L2,-14 L2.5,-11 L5,-10 L7.5,-12 L10,-9.5 L8,-7 L9,-4.5 L12,-4 L12,-1 L9,-0.5 L9,2 L12,3.5 L12,6.5 L9,6 L8,8.5 L10,11 L7.5,13 L5,11 L2.5,12 L2,15 L-2,15 L-2.5,12 L-5,11 L-7.5,13 L-10,11 L-8,8.5 L-9,6 L-12,6.5 L-12,3.5 L-9,2 L-9,-0.5 L-12,-1 L-12,-4 L-9,-4.5 L-8,-7 L-10,-9.5 L-7.5,-12 L-5,-10 L-2.5,-11Z"
          fill="#334e68" stroke="#243b53" stroke-width="0.5"/>
    <!-- Yellow center circle -->
    <circle cx="0" cy="0.5" r="5" fill="#f7c948" stroke="#de911d" stroke-width="0.8"/>
    <!-- Inner detail -->
    <circle cx="0" cy="0.5" r="2" fill="#fce588"/>
  </g>
</svg>
