<svg xmlns="http://www.w3.org/2000/svg" viewBox="0 0 210 48" fill="none">
  <!-- Gear mark matching favicon -->
  <g transform="translate(24,24)">
    <path d="M-2,-15 L2,-15 L2.5,-12 L5,-11 L7.5,-13 L10,-10.5 L8,-8 L9,-5.5 L12,-5 L12,-2 L9,-1.5 L9,1 L12,2.5 L12,5.5 L9,5 L8,7.5 L10,10 L7.5,12 L5,10 L2.5,11 L2,14 L-2,14 L-2.5,11 L-5,10 L-7.5,12 L-10,10 L-8,7.5 L-9,5 L-12,5.5 L-12,2.5 L-9,1 L-9,-1.5 L-12,-2 L-12,-5 L-9,-5.5 L-8,-8 L-10,-10.5 L-7.5,-13 L-5,-11 L-2.5,-12Z"
          fill="#334e68" stroke="#243b53" stroke-width="0.5"/>
    <circle cx="0" cy="-0.5" r="5.5" fill="#f7c948" stroke="#de911d" stroke-width="0.8"/>
    <circle cx="0" cy="-0.5" r="2.2" fill="#fce588"/>
  </g>
  <!-- Wordmark -->
  <text x="52" y="22" font-family="Georgia, 'Times New Roman', serif" font-size="22" font-weight="400" fill="#102a43" letter-spacing="-0.5">Build</text>
  <text x="52" y="40" font-family="Georgia, 'Times New Roman', serif" font-size="22" font-weight="400" fill="#334e68" letter-spacing="-0.5">Coded</text>
</svg>
